<?xml version="1.0" encoding="UTF-8" standalone="no"?>
<svg
   xmlns:dc="http://purl.org/dc/elements/1.1/"
   xmlns:cc="http://creativecommons.org/ns#"
   xmlns:rdf="http://www.w3.org/1999/02/22-rdf-syntax-ns#"
   xmlns:svg="http://www.w3.org/2000/svg"
   xmlns="http://www.w3.org/2000/svg"
   xmlns:xlink="http://www.w3.org/1999/xlink"
   xmlns:sodipodi="http://sodipodi.sourceforge.net/DTD/sodipodi-0.dtd"
   xmlns:inkscape="http://www.inkscape.org/namespaces/inkscape"
   sodipodi:docname="convect_logo.svg"
   inkscape:version="1.0 (4035a4f, 2020-05-01)"
   id="svg1244"
   version="1.1"
   viewBox="0 0 157.63396 32"
   height="32mm"
   width="157.63396mm">
  <defs
     id="defs1238">
    <linearGradient
       gradientTransform="matrix(4.1812247,0,0,4.1812247,-168.65358,-227.2055)"
       inkscape:collect="always"
       xlink:href="#linearGradient973"
       id="linearGradient983"
       x1="63.616314"
       y1="56.266613"
       x2="63.616314"
       y2="66.849945"
       gradientUnits="userSpaceOnUse" />
    <linearGradient
       inkscape:collect="always"
       id="linearGradient973">
      <stop
         style="stop-color:#4a61dd;stop-opacity:1;"
         offset="0"
         id="stop969" />
      <stop
         style="stop-color:#4a61dd;stop-opacity:0;"
         offset="1"
         id="stop971" />
    </linearGradient>
    <linearGradient
       gradientTransform="matrix(4.1812247,0,0,4.1812247,-168.65358,-227.2055)"
       inkscape:collect="always"
       xlink:href="#linearGradient973"
       id="linearGradient991"
       x1="70.230896"
       y1="56.266613"
       x2="70.230896"
       y2="66.849945"
       gradientUnits="userSpaceOnUse" />
    <linearGradient
       gradientTransform="matrix(4.1812247,0,0,4.1812247,-168.65358,-227.2055)"
       inkscape:collect="always"
       xlink:href="#linearGradient973"
       id="linearGradient999"
       x1="75.522568"
       y1="56.266613"
       x2="75.522568"
       y2="66.849945"
       gradientUnits="userSpaceOnUse" />
    <linearGradient
       gradientTransform="matrix(4.1812247,0,0,4.1812247,-168.65358,-227.2055)"
       inkscape:collect="always"
       xlink:href="#linearGradient973"
       id="linearGradient975"
       x1="58.324646"
       y1="56.266613"
       x2="58.324646"
       y2="66.849945"
       gradientUnits="userSpaceOnUse" />
  </defs>
  <sodipodi:namedview
     inkscape:window-maximized="0"
     inkscape:window-y="25"
     inkscape:window-x="0"
     inkscape:window-height="1067"
     inkscape:window-width="1792"
     showgrid="false"
     inkscape:document-rotation="0"
     inkscape:current-layer="layer1"
     inkscape:document-units="mm"
     inkscape:cy="49.60613"
     inkscape:cx="332.12024"
     inkscape:zoom="1.2470153"
     inkscape:pageshadow="2"
     inkscape:pageopacity="0.0"
     borderopacity="1.0"
     bordercolor="#666666"
     pagecolor="#ffffff"
     id="base" />
  <metadata
     id="metadata1241">
    <rdf:RDF>
      <cc:Work
         rdf:about="">
        <dc:format>image/svg+xml</dc:format>
        <dc:type
           rdf:resource="http://purl.org/dc/dcmitype/StillImage" />
        <dc:title />
      </cc:Work>
    </rdf:RDF>
  </metadata>
  <g
     transform="translate(2.28587,3.0701098)"
     id="layer1"
     inkscape:groupmode="layer"
     inkscape:label="Layer 1">
    <path
       d="m 20.0126,21.626712 q 0,1.101953 -0.66983,2.355163 -0.64822,1.253205 -2.00946,2.398379 -1.33962,1.123562 -3.39231,1.814986 -2.05264,0.691424 -4.62389,0.691424 -5.46657,0 -8.53476004,-3.176229 Q -2.28587,22.512596 -2.28587,17.15406 q 0,-3.62998 1.40446996,-6.417281 1.40448,-2.7873048 4.06211004,-4.2997958 2.65767,-1.534095 6.35249,-1.534095 2.29031,0 4.19176,0.669815 1.92299,0.669816 3.24103,1.72856 1.33963,1.058745 2.03108,2.268737 0.71302,1.1883788 0.71302,2.2255198 0,1.05874 -0.79945,1.793381 -0.77788,0.734641 -1.90145,0.734641 -0.7346,0 -1.23158,-0.36732 -0.47537,-0.388938 -1.08035,-1.231601 -1.08034,-1.64213 -2.26873,-2.463197 -1.16677,-0.8210668 -2.98176,-0.8210668 -2.61448,0 -4.21338,2.0526678 -1.59894,2.031059 -1.59894,5.574605 0,1.663743 0.4106,3.068195 0.41059,1.382853 1.18839,2.376771 0.77787,0.972319 1.87983,1.490887 1.10196,0.49696 2.41997,0.49696 1.77179,0 3.02499,-0.821067 1.27481,-0.821068 2.24712,-2.506415 0.54017,-0.993919 1.16677,-1.555704 0.6266,-0.561781 1.53413,-0.561781 1.08034,0 1.79337,0.821067 0.71302,0.821067 0.71302,1.750169 z"
       style="font-style:normal;font-variant:normal;font-weight:normal;font-stretch:normal;font-size:10.5833px;line-height:1.25;font-family:'Arial Rounded MT Bold';-inkscape-font-specification:'Arial Rounded MT Bold, ';letter-spacing:-0.0132292px;word-spacing:0px;fill:#99a1ba;fill-opacity:1;stroke:none;stroke-width:0.292703"
       id="path1029-4" />
    <path
       d="m 47.1605,16.937991 q 0,2.636053 -0.82107,4.861577 -0.82106,2.22552 -2.37677,3.824441 -1.55571,1.598917 -3.7164,2.463197 -2.16069,0.842676 -4.86159,0.842676 -2.67925,0 -4.81836,-0.864285 -2.13912,-0.86428 -3.7164,-2.463197 -1.55571,-1.620525 -2.37678,-3.802832 -0.79945,-2.203915 -0.79945,-4.861577 0,-2.67927 0.82107,-4.904794 0.82107,-2.2255188 2.35516,-3.8028318 1.53409,-1.577313 3.7164,-2.419984 2.1823,-0.86428 4.81836,-0.86428 2.67928,0 4.86159,0.86428 2.18231,0.86428 3.73801,2.463197 1.55571,1.598921 2.35516,3.8028358 0.82107,2.203915 0.82107,4.861577 z m -5.92032,0 q 0,-3.608372 -1.59894,-5.617822 -1.57729,-2.0094548 -4.25657,-2.0094548 -1.72856,0 -3.04657,0.9074968 -1.31805,0.885885 -2.03107,2.636049 -0.71303,1.750169 -0.71303,4.083731 0,2.31195 0.69141,4.04051 0.71302,1.72856 2.00946,2.657662 1.31804,0.907493 3.0898,0.907493 2.67928,0 4.25657,-2.009451 1.59894,-2.031059 1.59894,-5.596214 z"
       style="font-style:normal;font-variant:normal;font-weight:normal;font-stretch:normal;font-size:10.5833px;line-height:1.25;font-family:'Arial Rounded MT Bold';-inkscape-font-specification:'Arial Rounded MT Bold, ';letter-spacing:-0.0132292px;word-spacing:0px;fill:#99a1ba;fill-opacity:1;stroke:none;stroke-width:0.292703"
       id="path1031-2" />
    <path
       d="M 105.8383,18.385661 H 94.30017 q 0.0209,2.00945 0.79945,3.543546 0.79949,1.5341 2.09588,2.31195 1.31805,0.777854 2.89537,0.777854 1.05873,0 1.92299,-0.237661 0.88592,-0.259278 1.70699,-0.77785 0.82106,-0.540177 1.51247,-1.145175 0.69141,-0.604994 1.79337,-1.64213 0.45375,-0.388937 1.29643,-0.388937 0.90749,0 1.46928,0.496963 0.56179,0.49696 0.56179,1.404457 0,0.799458 -0.6266,1.879808 -0.62659,1.058744 -1.90141,2.052667 -1.25324,0.972315 -3.17627,1.620526 -1.90141,0.648211 -4.38618,0.648211 -5.68266,0 -8.83727,-3.241055 -3.15465,-3.241052 -3.15465,-8.794053 0,-2.614444 0.77787,-4.839968 0.77783,-2.2471278 2.26873,-3.8460488 1.4909,-1.598917 3.67321,-2.441589 2.18231,-0.86428 4.83993,-0.86428 3.45712,0 5.92033,1.469274 2.48481,1.44767 3.71639,3.7596188 1.23163,2.31195 1.23163,4.71033 0,2.225519 -1.27482,2.895339 -1.27481,0.648211 -3.58678,0.648211 z m -11.53813,-3.34909 h 10.69549 q -0.21617,-3.024978 -1.64213,-4.515865 -1.40448,-1.5124868 -3.7164,-1.5124868 -2.20393,0 -3.63002,1.5340958 -1.40443,1.512491 -1.70694,4.494256 z"
       style="font-style:normal;font-variant:normal;font-weight:normal;font-stretch:normal;font-size:10.5833px;line-height:1.25;font-family:'Arial Rounded MT Bold';-inkscape-font-specification:'Arial Rounded MT Bold, ';letter-spacing:-0.0132292px;word-spacing:0px;fill:url(#linearGradient983);fill-opacity:1;stroke:none;stroke-width:0.292703"
       id="path1037-2" />
    <path
       d="m 136.77824,21.626712 q 0,1.101953 -0.66979,2.355163 -0.64822,1.253205 -2.00946,2.398379 -1.33962,1.123562 -3.39231,1.814986 -2.05265,0.691424 -4.62389,0.691424 -5.46658,0 -8.53476,-3.176229 -3.06818,-3.197839 -3.06818,-8.556375 0,-3.62998 1.40443,-6.417281 1.40447,-2.7873048 4.06214,-4.2997958 2.65763,-1.534095 6.35245,-1.534095 2.29031,0 4.19177,0.669815 1.92298,0.669816 3.24103,1.72856 1.33962,1.058745 2.03107,2.268737 0.71303,1.1883788 0.71303,2.2255198 0,1.05874 -0.79945,1.793381 -0.77788,0.734641 -1.90142,0.734641 -0.73464,0 -1.23162,-0.36732 -0.47536,-0.388938 -1.08034,-1.231601 -1.08035,-1.64213 -2.26873,-2.463197 -1.16678,-0.8210668 -2.98176,-0.8210668 -2.61448,0 -4.21338,2.0526678 -1.59894,2.031059 -1.59894,5.574605 0,1.663743 0.41059,3.068195 0.4106,1.382853 1.18839,2.376771 0.77788,0.972319 1.87984,1.490887 1.10196,0.49696 2.41997,0.49696 1.77179,0 3.02499,-0.821067 1.27481,-0.821068 2.24711,-2.506415 0.54017,-0.993919 1.16677,-1.555704 0.6266,-0.561781 1.53414,-0.561781 1.08034,0 1.79337,0.821067 0.71302,0.821067 0.71302,1.750169 z"
       style="font-style:normal;font-variant:normal;font-weight:normal;font-stretch:normal;font-size:10.5833px;line-height:1.25;font-family:'Arial Rounded MT Bold';-inkscape-font-specification:'Arial Rounded MT Bold, ';letter-spacing:-0.0132292px;word-spacing:0px;fill:url(#linearGradient991);fill-opacity:1;stroke:none;stroke-width:0.292703"
       id="path1039-2" />
    <path
       d="m 142.16792,5.4646692 h 0.64821 v -3.543551 q 0,-1.42606104 0.0648,-2.22552304 0.0865,-0.82106296 0.43213,-1.40445296 0.34579,-0.604998 0.99396,-0.972314 0.64818,-0.388938 1.44763,-0.388938 1.12358,0 2.03107,0.842676 0.60498,0.561781 0.75626,1.38284796 0.17268,0.799458 0.17268,2.29034104 v 4.018905 h 2.16069 q 1.2532,0 1.90141,0.604994 0.66983,0.58339 0.66983,1.512491 0,1.188388 -0.95072,1.663743 -0.92911,0.475351 -2.67929,0.475351 h -1.10192 V 20.567959 q 0,1.382844 0.0865,2.139094 0.10788,0.734637 0.51856,1.209992 0.43213,0.453746 1.38285,0.453746 0.51856,0 1.40444,-0.172852 0.88587,-0.194468 1.38285,-0.194468 0.71303,0 1.27482,0.583389 0.5834,0.561781 0.5834,1.404453 0,1.426065 -1.55571,2.182311 -1.5557,0.756245 -4.47265,0.756245 -2.76572,0 -4.19176,-0.929101 -1.42601,-0.92909 -1.8798,-2.571224 -0.43213,-1.642134 -0.43213,-4.386222 V 9.7212472 h -0.77783 q -1.27482,0 -1.94465,-0.604998 -0.66983,-0.604994 -0.66983,-1.534095 0,-0.929102 0.69145,-1.512491 0.71302,-0.604994 2.05265,-0.604994 z"
       style="font-style:normal;font-variant:normal;font-weight:normal;font-stretch:normal;font-size:10.5833px;line-height:1.25;font-family:'Arial Rounded MT Bold';-inkscape-font-specification:'Arial Rounded MT Bold, ';letter-spacing:-0.0132292px;word-spacing:0px;fill:url(#linearGradient999);fill-opacity:1;stroke:none;stroke-width:0.292703"
       id="path1041-1" />
    <path
       sodipodi:nodetypes="cccccccccccc"
       d="m 54.50867,4.9452732 c -1.63055,9.07e-4 -2.95182,1.323136 -2.95153,2.953688 V 25.977607 c 8.8e-4,1.629695 1.32181,2.950606 2.95153,2.951514 1.63055,2.88e-4 2.95278,-1.320979 2.95366,-2.951514 v -9.980316 l 9.60435,11.460398 c 1.28928,1.53719 3.34599,1.933904 4.59584,0.888046 1.24998,-1.046995 1.21736,-3.143102 -0.0715,-4.682252 L 56.87173,6.0401852 c -0.47624,-0.523009 -1.33222,-1.0951 -2.36323,-1.094912 z"
       style="font-style:normal;font-weight:normal;font-size:10.5833px;line-height:1.25;font-family:sans-serif;letter-spacing:-0.396875px;word-spacing:0px;display:inline;opacity:1;fill:#99a1ba;fill-opacity:1;stroke:none;stroke-width:0.335141"
       id="path1068-5-9" />
    <path
       id="path1068-5-5-1"
       style="font-style:normal;font-weight:normal;font-size:10.5833px;line-height:1.25;font-family:sans-serif;letter-spacing:-0.396875px;word-spacing:0px;display:inline;opacity:1;fill:url(#linearGradient975);fill-opacity:1;stroke:none;stroke-width:0.335141"
       d="m 82.14401,28.929693 c 1.63055,-9.07e-4 2.95182,-1.323136 2.95153,-2.953684 V 7.8973642 c -9.2e-4,-1.6297 -1.32181,-2.950611 -2.95153,-2.951518 -1.63055,-2.89e-4 -2.95278,1.320978 -2.9537,2.951518 V 17.87768 L 69.58595,6.4172812 c -1.28928,-1.537194 -3.34594,-1.933904 -4.59579,-0.888046 -1.25002,1.046996 -1.2174,3.143102 0.0715,4.6822478 l 14.71929,17.623302 c 0.47624,0.523005 1.33218,1.095097 2.36323,1.094908 z"
       sodipodi:nodetypes="cccccccccccc" />
  </g>
</svg>
